<svg xmlns="http://www.w3.org/2000/svg" width="80" height="80" viewBox="0 0 80 80" fill="none">
  <ellipse cx="40" cy="70" rx="26" ry="4" fill="#2f2118" opacity=".1"/>
  <g stroke="#493944" stroke-width="2.2" stroke-linecap="round" stroke-linejoin="round">
    <path d="M25 47c-7 4-9 12-8 17 1 4 9 4 12 1h22c3 3 11 3 12-1 1-5-1-13-8-17" fill="#b8a5cd"/>
    <path d="M27 55v10m26-10v10"/>
    <path d="M29 24C13 9 3 28 10 44c4 10 14 10 21 3m18-23C65 9 77 28 70 44c-4 10-14 10-21 3" fill="#b8a5cd"/>
    <path d="M25 29c-10-8-14 3-10 11 2 4 6 6 10 3m30-14c10-8 14 3 10 11-2 4-6 6-10 3" fill="#efbcc7" stroke="none"/>
    <path d="M20 34c0-15 8-22 20-22s20 7 20 22v7c0 10-9 16-20 16S20 51 20 41Z" fill="#c7b7d8"/>
    <path d="M36 42v15c0 7 4 11 10 11 7 0 11-5 10-10-1-4-6-4-7-1 0 2-1 3-3 3-1 0-2-1-2-3V42" fill="#c7b7d8"/>
    <path d="M36 51h5m-4 5h4" stroke="#9b85b4" stroke-width="1.8"/>
    <path d="M35 17c0-4 4-7 7-6m-2 5c1-4 4-5 7-4"/>
  </g>
  <ellipse cx="28" cy="42" rx="4" ry="2.5" fill="#efbcc7"/>
  <ellipse cx="52" cy="42" rx="4" ry="2.5" fill="#efbcc7"/>
  <circle cx="29" cy="35" r="2.4" fill="#493944"/>
  <circle cx="51" cy="35" r="2.4" fill="#493944"/>
  <circle cx="29.7" cy="34.3" r=".7" fill="#fffaf0"/>
  <circle cx="51.7" cy="34.3" r=".7" fill="#fffaf0"/>
</svg>
